<?xml version="1.0" encoding="UTF-8" standalone="no"?>
<svg
   width="110"
   height="110"
   viewBox="0 0 29.104166 29.104165"
   version="1.1"
   id="versatiles-icons"
   sodipodi:docname="car.svg"
   inkscape:version="1.2 (dc2aeda, 2022-05-15)"
   xmlns:inkscape="http://www.inkscape.org/namespaces/inkscape"
   xmlns:sodipodi="http://sodipodi.sourceforge.net/DTD/sodipodi-0.dtd"
   xmlns="http://www.w3.org/2000/svg"
   xmlns:svg="http://www.w3.org/2000/svg"
   xmlns:rdf="http://www.w3.org/1999/02/22-rdf-syntax-ns#"
   xmlns:cc="http://creativecommons.org/ns#">
  <sodipodi:namedview
     id="namedview554"
     pagecolor="#505050"
     bordercolor="#eeeeee"
     borderopacity="1"
     inkscape:showpageshadow="0"
     inkscape:pageopacity="0"
     inkscape:pagecheckerboard="0"
     inkscape:deskcolor="#505050"
     showgrid="false"
     inkscape:zoom="3.4451814"
     inkscape:cx="-7.837033"
     inkscape:cy="52.972538"
     inkscape:window-width="1859"
     inkscape:window-height="1027"
     inkscape:window-x="61"
     inkscape:window-y="229"
     inkscape:window-maximized="0"
     inkscape:current-layer="versatiles-icons" />
  <defs
     id="defs55458" />
  <metadata
     id="metadata55396">
    <rdf:RDF>
      <cc:Work
         rdf:about="">
        <cc:license
           rdf:resource="http://creativecommons.org/publicdomain/zero/1.0/" />
      </cc:Work>
      <cc:License
         rdf:about="http://creativecommons.org/publicdomain/zero/1.0/">
        <cc:permits
           rdf:resource="http://creativecommons.org/ns#Reproduction" />
        <cc:permits
           rdf:resource="http://creativecommons.org/ns#Distribution" />
        <cc:permits
           rdf:resource="http://creativecommons.org/ns#DerivativeWorks" />
      </cc:License>
    </rdf:RDF>
  </metadata>
  <path
     id="car"
     fill="#000000"
     d="m 7.9374329,2.6458327 c -5.2916001,0 -2.6458,13.2291703 -5.2916001,13.2291703 v 5.29166 c 0,2.64584 2.6458001,2.64584 2.6458001,2.64584 v 1.32291 c 0,0.7329 0.59,1.32292 1.3229,1.32292 0.7329,0 1.3229,-0.59002 1.3229,-1.32292 v -1.32291 H 21.166633 v 1.32291 c 0,0.7329 0.59,1.32292 1.3229,1.32292 0.7329,0 1.3229,-0.59002 1.3229,-1.32292 v -1.32291 c 2.6459,0 2.6459,-2.64584 2.6459,-2.64584 v -5.29166 c -2.6459,0 -10e-5,-13.2291703 -5.2917,-13.2291703 z m 0,2.64583 H 21.166633 c 2.6458,0 2.6458,5.2916903 2.6458,7.9375003 H 5.2916329 c 0,-2.64581 0,-7.9374903 2.6458,-7.9375003 z m 0,10.5833403 a 2.6458261,1.3229046 0 0 1 2.6459001,1.32291 2.6458261,1.3229046 0 0 1 -2.6459001,1.32292 2.6458261,1.3229046 0 0 1 -2.6458,-1.32292 2.6458261,1.3229046 0 0 1 2.6458,-1.32291 z m 13.2292001,0 a 2.6458461,1.3229257 0 0 1 2.6458,1.32291 2.6458461,1.3229257 0 0 1 -2.6458,1.32292 2.6458461,1.3229257 0 0 1 -2.6458,-1.32292 2.6458461,1.3229257 0 0 1 2.6458,-1.32291 z m -10.5833,2.64583 h 7.9375 v 2.64583 h -7.9375 z" />
</svg>
