<?xml version="1.0" encoding="UTF-8" standalone="no"?>
<svg
   width="110"
   height="110"
   viewBox="0 0 29.104165 29.104165"
   version="1.1"
   id="versatiles-icons"
   sodipodi:docname="halt.svg"
   inkscape:version="1.2 (dc2aeda, 2022-05-15)"
   xmlns:inkscape="http://www.inkscape.org/namespaces/inkscape"
   xmlns:sodipodi="http://sodipodi.sourceforge.net/DTD/sodipodi-0.dtd"
   xmlns="http://www.w3.org/2000/svg"
   xmlns:svg="http://www.w3.org/2000/svg"
   xmlns:rdf="http://www.w3.org/1999/02/22-rdf-syntax-ns#"
   xmlns:cc="http://creativecommons.org/ns#">
  <sodipodi:namedview
     id="namedview1415"
     pagecolor="#505050"
     bordercolor="#eeeeee"
     borderopacity="1"
     inkscape:showpageshadow="0"
     inkscape:pageopacity="0"
     inkscape:pagecheckerboard="0"
     inkscape:deskcolor="#505050"
     showgrid="false"
     inkscape:zoom="3.4451814"
     inkscape:cx="-53.262798"
     inkscape:cy="42.2329"
     inkscape:window-width="1859"
     inkscape:window-height="1027"
     inkscape:window-x="61"
     inkscape:window-y="229"
     inkscape:window-maximized="0"
     inkscape:current-layer="versatiles-icons" />
  <defs
     id="defs55458" />
  <metadata
     id="metadata55396">
    <rdf:RDF>
      <cc:Work
         rdf:about="">
        <cc:license
           rdf:resource="http://creativecommons.org/publicdomain/zero/1.0/" />
      </cc:Work>
      <cc:License
         rdf:about="http://creativecommons.org/publicdomain/zero/1.0/">
        <cc:permits
           rdf:resource="http://creativecommons.org/ns#Reproduction" />
        <cc:permits
           rdf:resource="http://creativecommons.org/ns#Distribution" />
        <cc:permits
           rdf:resource="http://creativecommons.org/ns#DerivativeWorks" />
      </cc:License>
    </rdf:RDF>
  </metadata>
  <path
   id="halt"
   d="m 14.552082,2.6458332 c -6.5614924,0 -11.9062498,5.3447353 -11.9062498,11.9062488 0,6.561514 5.3447574,11.90625 11.9062498,11.90625 6.561494,0 11.906249,-5.344736 11.906249,-11.90625 0,-6.5615135 -5.344755,-11.9062488 -11.906249,-11.9062488 z m 0,2.3807331 c 5.27459,0 9.523449,4.2509267 9.523449,9.5255157 0,5.27459 -4.248859,9.52345 -9.523449,9.52345 -5.2745874,0 -9.5255169,-4.24886 -9.5255169,-9.52345 0,-5.274589 4.2509295,-9.5255157 9.5255169,-9.5255157 z m -3.96875,2.9109332 c -2.6458964,0 -2.6458334,8.7e-6 -2.6458334,2.6458335 v 7.937499 c 0,2.645826 -6.3e-5,2.645833 2.6458334,2.645833 h 1.322917 v -5.291666 h 5.291667 v 5.291666 h 1.322916 c 2.645795,0 2.645832,-7e-6 2.645832,-2.645833 v -7.937499 c 0,-2.6458248 -3.7e-5,-2.6458335 -2.645832,-2.6458335 H 17.197916 V 13.229166 H 11.906249 V 7.9374995 Z"
   style="fill:#112200;fill-opacity:1" />
  <path
     id="path993"
     d="M 14.552082 5.0265663 C 9.2774884 5.0265663 5.0265663 9.2774872 5.0265663 14.552082 C 5.0265663 19.826677 9.2774884 24.075532 14.552082 24.075532 C 19.826677 24.075532 24.075532 19.826677 24.075532 14.552082 C 24.075532 9.2774872 19.826677 5.0265663 14.552082 5.0265663 z M 10.583333 7.9374995 L 11.906249 7.9374995 L 11.906249 13.229166 L 17.197916 13.229166 L 17.197916 7.9374995 L 18.520832 7.9374995 C 21.16663 7.9374995 21.166665 7.9375058 21.166665 10.583333 L 21.166665 18.520832 C 21.166665 21.16666 21.16663 21.166665 18.520832 21.166665 L 17.197916 21.166665 L 17.197916 15.874999 L 11.906249 15.874999 L 11.906249 21.166665 L 10.583333 21.166665 C 7.937435 21.166665 7.9374995 21.16666 7.9374995 18.520832 L 7.9374995 10.583333 C 7.9374995 7.9375058 7.937435 7.9374995 10.583333 7.9374995 z "
     style="fill:#444400;fill-opacity:1" />
</svg>
