<?xml version="1.0" encoding="UTF-8" standalone="no"?>
<svg
   width="110"
   height="110"
   viewBox="0 0 29.104165 29.104165"
   version="1.1"
   id="versatiles-icons"
   sodipodi:docname="harbor.svg"
   inkscape:version="1.2 (dc2aeda, 2022-05-15)"
   xmlns:inkscape="http://www.inkscape.org/namespaces/inkscape"
   xmlns:sodipodi="http://sodipodi.sourceforge.net/DTD/sodipodi-0.dtd"
   xmlns="http://www.w3.org/2000/svg"
   xmlns:svg="http://www.w3.org/2000/svg"
   xmlns:rdf="http://www.w3.org/1999/02/22-rdf-syntax-ns#"
   xmlns:cc="http://creativecommons.org/ns#">
  <sodipodi:namedview
     id="namedview1538"
     pagecolor="#505050"
     bordercolor="#eeeeee"
     borderopacity="1"
     inkscape:showpageshadow="0"
     inkscape:pageopacity="0"
     inkscape:pagecheckerboard="0"
     inkscape:deskcolor="#505050"
     showgrid="false"
     inkscape:zoom="3.4451814"
     inkscape:cx="75.757985"
     inkscape:cy="65.453738"
     inkscape:window-width="1859"
     inkscape:window-height="1027"
     inkscape:window-x="61"
     inkscape:window-y="229"
     inkscape:window-maximized="0"
     inkscape:current-layer="versatiles-icons" />
  <defs
     id="defs55458" />
  <metadata
     id="metadata55396">
    <rdf:RDF>
      <cc:Work
         rdf:about="">
        <cc:license
           rdf:resource="http://creativecommons.org/publicdomain/zero/1.0/" />
      </cc:Work>
      <cc:License
         rdf:about="http://creativecommons.org/publicdomain/zero/1.0/">
        <cc:permits
           rdf:resource="http://creativecommons.org/ns#Reproduction" />
        <cc:permits
           rdf:resource="http://creativecommons.org/ns#Distribution" />
        <cc:permits
           rdf:resource="http://creativecommons.org/ns#DerivativeWorks" />
      </cc:License>
    </rdf:RDF>
  </metadata>
  <path
     id="harbor"
     fill="#000000"
     d="m 14.552032,2.6458325 a 3.96875,3.96875 0 0 0 -3.968699,3.96875 3.96875,3.96875 0 0 0 2.645799,3.7387905 v 1.55287 h -2.645799 v 2.64584 h 2.645799 v 9.25731 c -5.6455994,-0.0358 -7.9374994,-0.54971 -7.9374994,-7.9344 l -2.6458,2.64584 c 0,7.93749 5.2916,7.9375 10.5832994,7.9375 h 2.6458 c 5.2917,0 10.5834,-10e-6 10.5834,-7.9375 l -2.6459,-2.64584 c 0,7.38469 -2.2919,7.89858 -7.9375,7.9344 v -9.25731 h 2.6459 v -2.64584 h -2.6459 v -1.55287 a 3.96875,3.96875 0 0 0 2.6459,-3.7387905 3.96875,3.96875 0 0 0 -3.9688,-3.96875 z m 0,2.64583 a 1.3229166,1.3229166 0 0 1 1.3229,1.32292 1.3229166,1.3229166 0 0 1 -1.3229,1.32292 1.3229166,1.3229166 0 0 1 -1.3229,-1.32292 1.3229166,1.3229166 0 0 1 1.3229,-1.32292 z" />
</svg>
