<?xml version="1.0" encoding="UTF-8" standalone="no"?>
<svg
   width="110"
   height="110"
   viewBox="0 0 29.104165 29.104165"
   version="1.1"
   id="versatiles-icons"
   sodipodi:docname="lightrail.svg"
   inkscape:version="1.2 (dc2aeda, 2022-05-15)"
   xmlns:inkscape="http://www.inkscape.org/namespaces/inkscape"
   xmlns:sodipodi="http://sodipodi.sourceforge.net/DTD/sodipodi-0.dtd"
   xmlns="http://www.w3.org/2000/svg"
   xmlns:svg="http://www.w3.org/2000/svg"
   xmlns:rdf="http://www.w3.org/1999/02/22-rdf-syntax-ns#"
   xmlns:cc="http://creativecommons.org/ns#">
  <sodipodi:namedview
     id="namedview2030"
     pagecolor="#505050"
     bordercolor="#eeeeee"
     borderopacity="1"
     inkscape:showpageshadow="0"
     inkscape:pageopacity="0"
     inkscape:pagecheckerboard="0"
     inkscape:deskcolor="#505050"
     showgrid="false"
     inkscape:zoom="2.4361111"
     inkscape:cx="-92.565565"
     inkscape:cy="72.86203"
     inkscape:window-width="1859"
     inkscape:window-height="1027"
     inkscape:window-x="61"
     inkscape:window-y="229"
     inkscape:window-maximized="0"
     inkscape:current-layer="versatiles-icons" />
  <defs
     id="defs55458" />
  <metadata
     id="metadata55396">
    <rdf:RDF>
      <cc:Work
         rdf:about="">
        <cc:license
           rdf:resource="http://creativecommons.org/publicdomain/zero/1.0/" />
      </cc:Work>
      <cc:License
         rdf:about="http://creativecommons.org/publicdomain/zero/1.0/">
        <cc:permits
           rdf:resource="http://creativecommons.org/ns#Reproduction" />
        <cc:permits
           rdf:resource="http://creativecommons.org/ns#Distribution" />
        <cc:permits
           rdf:resource="http://creativecommons.org/ns#DerivativeWorks" />
      </cc:License>
    </rdf:RDF>
  </metadata>
  <path
   id="lightrail"
   d="m 13.229166,2.6458332 c -7.9374919,0 -10.5833338,2.64584 -10.5833338,10.5833328 v 2.645833 c 0,7.937492 2.6458419,10.583333 10.5833338,10.583333 h 2.645832 c 7.937492,0 10.583333,-2.645841 10.583333,-10.583333 v -2.645833 c 0,-7.9374928 -2.645841,-10.5833328 -10.583333,-10.5833328 z m 0,2.6458332 h 2.645832 c 2.645897,0 7.9375,2e-6 7.9375,5.2916666 h -2.645834 c 0,-2.6458272 -2.645832,-2.6458335 -2.645832,-2.6458335 h -5.291666 c 0,0 -2.645834,6.3e-6 -2.645834,2.6458335 0,2.645828 2.645834,2.645833 2.645834,2.645833 h 2.645832 c 2.811197,1e-5 7.9375,2e-6 7.9375,5.291666 0,5.291665 -5.291603,5.291667 -7.9375,5.291667 h -2.645832 c -2.645798,0 -7.9375009,0.102808 -7.9375009,-5.291667 h 2.6458335 c 0,2.645828 2.6458334,2.645833 2.6458334,2.645833 h 5.34696 c -0.055,0 2.59054,-5e-6 2.59054,-2.645833 0,-2.645827 -2.645834,-2.645833 -2.645834,-2.645833 h -2.645832 c -2.645798,-1e-5 -7.9375009,-1e-6 -7.9375009,-5.291666 0,-5.2916646 5.2917029,-5.2916666 7.9375009,-5.2916666 z"
   style="fill:#112200;fill-opacity:1" />
  <path
     d="m 13.229132,5.2916624 h 2.6458 c 2.6459,0 7.9375,0 7.9375,5.2916696 h -2.6458 c 0,-2.6458296 -2.6458,-2.6458296 -2.6458,-2.6458296 h -5.2917 c 0,0 -2.6458,0 -2.6458,2.6458296 0,2.645831 2.6458,2.645831 2.6458,2.645831 h 2.6458 c 2.8112,10e-6 7.9375,0 7.9375,5.29167 0,5.29167 -5.2916,5.29167 -7.9375,5.29167 h -2.6458 c -2.6458,0 -7.9374995,0.10281 -7.9374995,-5.29167 h 2.6458 c 0,2.64583 2.6458995,2.64583 2.6458995,2.64583 h 5.3469 c -0.055,0 2.5906,0 2.5906,-2.64583 0,-2.64583 -2.6459,-2.64583 -2.6459,-2.64583 h -2.6458 c -2.6458,-10e-6 -7.9374995,0 -7.9374995,-5.291671 0,-5.2916696 5.2916995,-5.2916696 7.9374995,-5.2916696 z"
     id="path980"
     style="fill:#555555;fill-opacity:1" />
</svg>
