<?xml version="1.0" encoding="UTF-8" standalone="no"?>
<svg
   width="110"
   height="110"
   viewBox="0 0 29.104165 29.104165"
   version="1.1"
   id="versatiles-icons"
   sodipodi:docname="metro.svg"
   inkscape:version="1.2 (dc2aeda, 2022-05-15)"
   xmlns:inkscape="http://www.inkscape.org/namespaces/inkscape"
   xmlns:sodipodi="http://sodipodi.sourceforge.net/DTD/sodipodi-0.dtd"
   xmlns="http://www.w3.org/2000/svg"
   xmlns:svg="http://www.w3.org/2000/svg"
   xmlns:rdf="http://www.w3.org/1999/02/22-rdf-syntax-ns#"
   xmlns:cc="http://creativecommons.org/ns#">
  <sodipodi:namedview
     id="namedview2399"
     pagecolor="#505050"
     bordercolor="#eeeeee"
     borderopacity="1"
     inkscape:showpageshadow="0"
     inkscape:pageopacity="0"
     inkscape:pagecheckerboard="0"
     inkscape:deskcolor="#505050"
     showgrid="false"
     inkscape:zoom="4.8722222"
     inkscape:cx="4.7206385"
     inkscape:cy="62.702394"
     inkscape:window-width="1859"
     inkscape:window-height="1027"
     inkscape:window-x="61"
     inkscape:window-y="229"
     inkscape:window-maximized="0"
     inkscape:current-layer="versatiles-icons" />
  <defs
     id="defs55458" />
  <metadata
     id="metadata55396">
    <rdf:RDF>
      <cc:Work
         rdf:about="">
        <cc:license
           rdf:resource="http://creativecommons.org/publicdomain/zero/1.0/" />
      </cc:Work>
      <cc:License
         rdf:about="http://creativecommons.org/publicdomain/zero/1.0/">
        <cc:permits
           rdf:resource="http://creativecommons.org/ns#Reproduction" />
        <cc:permits
           rdf:resource="http://creativecommons.org/ns#Distribution" />
        <cc:permits
           rdf:resource="http://creativecommons.org/ns#DerivativeWorks" />
      </cc:License>
    </rdf:RDF>
  </metadata>
  <path
     id="metro"
     fill="#000000"
     d="m 14.552082,2.6458323 c -6.5614995,0 -11.9061995,5.3447301 -11.9061995,11.9062507 0,6.56152 5.3447,11.90625 11.9061995,11.90625 6.5615,0 11.9062,-5.34473 11.9062,-11.90625 0,-6.5615206 -5.3447,-11.9062507 -11.9062,-11.9062507 z m 0,2.3807301 c 5.2746,0 9.5234,4.25092 9.5234,9.5255206 0,5.2746 -4.2488,9.52345 -9.5234,9.52345 -5.2745995,0 -9.5254995,-4.24885 -9.5254995,-9.52345 0,-5.2746006 4.2509,-9.5255206 9.5254995,-9.5255206 z m -3.9687,2.91094 c -2.6458995,0 -2.6458995,0 -2.6458995,2.6458296 v 7.937501 c 0,2.64583 0,2.64583 2.6458995,2.64583 h 1.3229 v -7.9375 l 2.6458,2.64582 2.6458,-2.64582 v 7.9375 h 1.323 c 2.6458,0 2.6458,0 2.6458,-2.64583 v -7.937501 c 0,-2.6458296 0,-2.6458296 -2.6458,-2.6458296 h -1.323 v -10e-6 l -2.6458,2.6458196 -2.6458,-2.6458196 v 10e-6 z" />
</svg>
