<?xml version="1.0" encoding="UTF-8" standalone="no"?>
<svg
   width="110"
   height="110"
   viewBox="0 0 29.104165 29.104165"
   version="1.1"
   id="versatiles-icons"
   sodipodi:docname="parking.svg"
   inkscape:version="1.2 (dc2aeda, 2022-05-15)"
   xmlns:inkscape="http://www.inkscape.org/namespaces/inkscape"
   xmlns:sodipodi="http://sodipodi.sourceforge.net/DTD/sodipodi-0.dtd"
   xmlns="http://www.w3.org/2000/svg"
   xmlns:svg="http://www.w3.org/2000/svg"
   xmlns:rdf="http://www.w3.org/1999/02/22-rdf-syntax-ns#"
   xmlns:cc="http://creativecommons.org/ns#">
  <sodipodi:namedview
     id="namedview2522"
     pagecolor="#505050"
     bordercolor="#eeeeee"
     borderopacity="1"
     inkscape:showpageshadow="0"
     inkscape:pageopacity="0"
     inkscape:pagecheckerboard="0"
     inkscape:deskcolor="#505050"
     showgrid="false"
     inkscape:zoom="3.4451814"
     inkscape:cx="-27.139355"
     inkscape:cy="84.320669"
     inkscape:window-width="1859"
     inkscape:window-height="1027"
     inkscape:window-x="61"
     inkscape:window-y="229"
     inkscape:window-maximized="0"
     inkscape:current-layer="versatiles-icons" />
  <defs
     id="defs55458" />
  <metadata
     id="metadata55396">
    <rdf:RDF>
      <cc:Work
         rdf:about="">
        <cc:license
           rdf:resource="http://creativecommons.org/publicdomain/zero/1.0/" />
      </cc:Work>
      <cc:License
         rdf:about="http://creativecommons.org/publicdomain/zero/1.0/">
        <cc:permits
           rdf:resource="http://creativecommons.org/ns#Reproduction" />
        <cc:permits
           rdf:resource="http://creativecommons.org/ns#Distribution" />
        <cc:permits
           rdf:resource="http://creativecommons.org/ns#DerivativeWorks" />
      </cc:License>
    </rdf:RDF>
  </metadata>
  <path
   id="parking"
   d="M 2.6458322,2.6458332 V 26.458332 H 26.458331 V 2.6458332 Z m 5.2916664,2.6458332 h 2.6458334 2.645834 2.645832 c 2.645795,0 5.291666,2.6458418 5.291666,5.2916666 v 2.645833 c 0,2.645834 -2.645871,5.291666 -5.291666,5.291666 h -2.645832 v 5.291667 H 7.9374986 Z m 5.2916674,5.2916666 v 2.645833 h 1.852083 c 1.322897,0 1.322897,-2.645833 0,-2.645833 z"
   style="fill:#001133;fill-opacity:1" />
  <path
     id="path962"
     d="M 7.9374996,5.2916664 V 23.812499 h 5.2916664 v -5.291667 h 2.645833 c 2.645797,0 5.291666,-2.645829 5.291666,-5.291666 v -2.645833 c 0,-2.6458272 -2.645869,-5.2916666 -5.291666,-5.2916666 h -2.645833 -2.645833 z m 5.2916664,5.2916666 h 1.852083 c 1.322899,0 1.322899,2.645833 0,2.645833 h -1.852083 z"
     style="fill:#555555;fill-opacity:1" />
</svg>
