<?xml version="1.0" encoding="UTF-8" standalone="no"?>
<svg
   width="110"
   height="110"
   viewBox="0 0 29.104168 29.104166"
   version="1.1"
   id="versatiles-icons"
   sodipodi:docname="tram.svg"
   inkscape:version="1.2 (dc2aeda, 2022-05-15)"
   xmlns:inkscape="http://www.inkscape.org/namespaces/inkscape"
   xmlns:sodipodi="http://sodipodi.sourceforge.net/DTD/sodipodi-0.dtd"
   xmlns="http://www.w3.org/2000/svg"
   xmlns:svg="http://www.w3.org/2000/svg"
   xmlns:rdf="http://www.w3.org/1999/02/22-rdf-syntax-ns#"
   xmlns:cc="http://creativecommons.org/ns#">
  <sodipodi:namedview
     id="namedview3875"
     pagecolor="#505050"
     bordercolor="#eeeeee"
     borderopacity="1"
     inkscape:showpageshadow="0"
     inkscape:pageopacity="0"
     inkscape:pagecheckerboard="0"
     inkscape:deskcolor="#505050"
     showgrid="false"
     inkscape:zoom="2.8511846"
     inkscape:cx="72.952134"
     inkscape:cy="68.21726"
     inkscape:window-width="1859"
     inkscape:window-height="1027"
     inkscape:window-x="61"
     inkscape:window-y="229"
     inkscape:window-maximized="0"
     inkscape:current-layer="versatiles-icons" />
  <defs
     id="defs55458" />
  <metadata
     id="metadata55396">
    <rdf:RDF>
      <cc:Work
         rdf:about="">
        <cc:license
           rdf:resource="http://creativecommons.org/publicdomain/zero/1.0/" />
      </cc:Work>
      <cc:License
         rdf:about="http://creativecommons.org/publicdomain/zero/1.0/">
        <cc:permits
           rdf:resource="http://creativecommons.org/ns#Reproduction" />
        <cc:permits
           rdf:resource="http://creativecommons.org/ns#Distribution" />
        <cc:permits
           rdf:resource="http://creativecommons.org/ns#DerivativeWorks" />
      </cc:License>
    </rdf:RDF>
  </metadata>
  <path
     id="tram"
     fill="#000000"
     d="m 18.520901,0.33073758 c -0.3308,0 -0.6615,0.33073001 -1.323,0.99218002 l -2.6458,2.64584 c -1.3229,1.3229 -1.3229,1.32291 0,2.64583 l 1.3229,1.32292 H 2.6459001 c 0,0 -2.6459001,-10e-6 -2.6459001,2.6458294 v 7.9375 5.29167 c 0,2.64583 0,2.64583 2.6459001,2.64583 h 2.6458 c 0,1.46125 1.1846,2.64583 2.6458,2.64583 1.4613,0 2.6459009,-1.18458 2.6459009,-2.64583 h 7.9375 c 0,1.46125 1.1845,2.64583 2.6458,2.64583 1.4612,0 2.6458,-1.18458 2.6458,-2.64583 h 2.6459 c 2.6458,0 2.6458,0 2.6458,-2.64583 v -5.29167 -7.9375 c 0,0 0,-2.6458294 -2.6458,-2.6458294 h -5.2917 l 1.3229,-1.32292 c 1.3229,-1.32292 1.3229,-1.32292 0,-2.64583 -1.3229,-1.32288 -1.7639,-1.7639 -2.6458,-2.64584 -0.6615,-0.66145001 -0.9922,-0.99218002 -1.3229,-0.99218002 z m 0,2.31510002 2.6458,2.64583 -2.6458,2.64584 -2.6459,-2.64584 z M 3.9688001,10.583337 h 2.6458 c 0.7329,0 1.3229,0.59002 1.3229,1.32292 v 5.29166 c 0,0.7329 -0.59,1.32292 -1.3229,1.32292 h -2.6458 c -0.7329,0 -1.3229,-0.59002 -1.3229,-1.32292 v -5.29166 c 0,-0.7329 0.59,-1.32292 1.3229,-1.32292 z m 7.9375009,0 h 5.2916 c 0.7329,0 1.323,0.59003 1.323,1.32292 v 5.29166 c 0,0.7329 -0.5901,1.32292 -1.323,1.32292 h -5.2916 c -0.7329,0 -1.3229,-0.59002 -1.3229,-1.32292 v -5.29166 c 0,-0.73289 0.59,-1.32292 1.3229,-1.32292 z m 10.5833,0 h 2.6458 c 0.7329,0 1.323,0.59002 1.323,1.32292 v 5.29166 c 0,0.7329 -0.5901,1.32292 -1.323,1.32292 h -2.6458 c -0.7329,0 -1.3229,-0.59002 -1.3229,-1.32292 v -5.29166 c 0,-0.7329 0.59,-1.32292 1.3229,-1.32292 z" />
</svg>
