<?xml version="1.0" encoding="UTF-8" standalone="no"?>
<svg
   width="110"
   height="110"
   viewBox="0 0 29.1042 29.104172"
   version="1.1"
   id="versatiles-icons"
   xmlns="http://www.w3.org/2000/svg"
   xmlns:svg="http://www.w3.org/2000/svg"
   xmlns:rdf="http://www.w3.org/1999/02/22-rdf-syntax-ns#"
   xmlns:cc="http://creativecommons.org/ns#">
  <defs
     id="defs55458" />
  <metadata
     id="metadata55396">
    <rdf:RDF>
      <cc:Work
         rdf:about="">
        <cc:license
           rdf:resource="http://creativecommons.org/publicdomain/zero/1.0/" />
      </cc:Work>
      <cc:License
         rdf:about="http://creativecommons.org/publicdomain/zero/1.0/">
        <cc:permits
           rdf:resource="http://creativecommons.org/ns#Reproduction" />
        <cc:permits
           rdf:resource="http://creativecommons.org/ns#Distribution" />
        <cc:permits
           rdf:resource="http://creativecommons.org/ns#DerivativeWorks" />
      </cc:License>
    </rdf:RDF>
  </metadata>
  <path
     id="circle-outline"
     fill="#000000"
     d="M 14.552098,1.2626262e-7 A 14.552077,14.552081 0 0 0 -1.9434237e-6,14.55208 14.552077,14.552081 0 0 0 14.552098,29.10416 14.552077,14.552081 0 0 0 29.104198,14.55208 14.552077,14.552081 0 0 0 14.552098,1.2626262e-7 Z m 0,2.64582997373738 A 11.906254,11.906257 0 0 1 26.458398,14.55208 11.906254,11.906257 0 0 1 14.552098,26.45833 11.906254,11.906257 0 0 1 2.6458981,14.55208 11.906254,11.906257 0 0 1 14.552098,2.6458301 Z" />
</svg>
