<?xml version="1.0" encoding="UTF-8" standalone="no"?>
<svg id="road-2" width="200" height="140" viewBox="0 0 52.916669 37.041657" version="1.1" xmlns="http://www.w3.org/2000/svg" xmlns:svg="http://www.w3.org/2000/svg" xmlns:rdf="http://www.w3.org/1999/02/22-rdf-syntax-ns#" xmlns:cc="http://creativecommons.org/ns#">
	<metadata>
		<rdf:RDF>
			<cc:Work rdf:about="">
				<cc:license rdf:resource="http://creativecommons.org/publicdomain/zero/1.0/" />
			</cc:Work>
			<cc:License rdf:about="http://creativecommons.org/publicdomain/zero/1.0/">
				<cc:permits rdf:resource="http://creativecommons.org/ns#Reproduction" />
				<cc:permits rdf:resource="http://creativecommons.org/ns#Distribution" />
				<cc:permits rdf:resource="http://creativecommons.org/ns#DerivativeWorks" />
			</cc:License>
		</rdf:RDF>
	</metadata>
	<path d="m 5.447379,2.645832 h 42.021897 c 1.573234,0 2.801556,1.223772 2.801556,2.791181 V 31.60465 c 0,1.567409 -1.228322,2.791181 -2.801556,2.791181 H 5.447379 c -1.573224,0 -2.8015458,-1.223772 -2.8015458,-2.791181 V 5.437013 c 0,-1.567409 1.2283218,-2.791181 2.8015458,-2.791181 z" />
	<path d="m 5.2927,-1e-6 C 2.38259,-10e-7 0,2.380879 0,5.291149 v 26.45936 c 0,2.91027 2.38259,5.29115 5.2927,5.29115 h 42.33127 c 2.91012,0 5.2927,-2.38088 5.2927,-5.29115 V 5.291149 c 0,-2.91027 -2.38258,-5.29115 -5.2927,-5.29115 z m 0,2.4691 h 42.33127 c 1.58481,0 2.82205,1.23716 2.82205,2.82205 v 26.45936 c 0,1.58489 -1.23724,2.82257 -2.82205,2.82257 H 5.2927 c -1.58479,0 -2.82205,-1.23768 -2.82205,-2.82257 V 5.291149 c 0,-1.58489 1.23726,-2.82205 2.82205,-2.82205 z" />
</svg>