<?xml version="1.0" encoding="UTF-8" standalone="no"?>
<!-- Created with Inkscape (http://www.inkscape.org/) -->

<svg
   width="96"
   height="96"
   viewBox="0 0 96 96"
   version="1.1"
   id="svg5"
   inkscape:version="1.2 (dc2aeda, 2022-05-15)"
   sodipodi:docname="checkerboard.svg"
   xmlns:inkscape="http://www.inkscape.org/namespaces/inkscape"
   xmlns:sodipodi="http://sodipodi.sourceforge.net/DTD/sodipodi-0.dtd"
   xmlns="http://www.w3.org/2000/svg"
   xmlns:svg="http://www.w3.org/2000/svg">
  <sodipodi:namedview
     id="namedview7"
     pagecolor="#545454"
     bordercolor="#eeeeee"
     borderopacity="1"
     inkscape:showpageshadow="0"
     inkscape:pageopacity="0.50196078"
     inkscape:pagecheckerboard="true"
     inkscape:deskcolor="#505050"
     inkscape:document-units="px"
     showgrid="true"
     inkscape:zoom="3.1251122"
     inkscape:cx="23.999138"
     inkscape:cy="96.796525"
     inkscape:window-width="1859"
     inkscape:window-height="1027"
     inkscape:window-x="61"
     inkscape:window-y="229"
     inkscape:window-maximized="0"
     inkscape:current-layer="layer1">
    <inkscape:grid
       type="xygrid"
       id="grid182"
       spacingx="12"
       spacingy="12"
       originx="0"
       originy="0" />
  </sodipodi:namedview>
  <defs
     id="defs2" />
  <g
     inkscape:label="Ebene 1"
     inkscape:groupmode="layer"
     id="layer1">
    <path
       id="rect810"
       style="stroke-width:10;stroke-linecap:round;stroke-linejoin:round;paint-order:markers fill stroke"
       d="M 0 0 L 0 24 L 24 24 L 24 0 L 0 0 z M 24 24 L 24 48 L 48 48 L 48 24 L 24 24 z M 48 24 L 72 24 L 72 0 L 48 0 L 48 24 z M 72 24 L 72 48 L 96 48 L 96 24 L 72 24 z M 72 48 L 48 48 L 48 72 L 72 72 L 72 48 z M 72 72 L 72 96 L 96 96 L 96 72 L 72 72 z M 48 72 L 24 72 L 24 96 L 48 96 L 48 72 z M 24 72 L 24 48 L 0 48 L 0 72 L 24 72 z " />
  </g>
</svg>
