<?xml version="1.0" encoding="UTF-8" standalone="no"?>
<!-- Created with Inkscape (http://www.inkscape.org/) -->

<svg
   width="108"
   height="108"
   viewBox="0 0 108 108"
   version="1.1"
   id="svg5"
   inkscape:version="1.2 (dc2aeda, 2022-05-15)"
   sodipodi:docname="hatched-thick.svg"
   xmlns:inkscape="http://www.inkscape.org/namespaces/inkscape"
   xmlns:sodipodi="http://sodipodi.sourceforge.net/DTD/sodipodi-0.dtd"
   xmlns="http://www.w3.org/2000/svg"
   xmlns:svg="http://www.w3.org/2000/svg">
  <sodipodi:namedview
     id="namedview7"
     pagecolor="#545454"
     bordercolor="#eeeeee"
     borderopacity="1"
     inkscape:showpageshadow="0"
     inkscape:pageopacity="0.50196078"
     inkscape:pagecheckerboard="true"
     inkscape:deskcolor="#505050"
     inkscape:document-units="px"
     showgrid="true"
     inkscape:zoom="3.1251122"
     inkscape:cx="73.437363"
     inkscape:cy="96.476535"
     inkscape:window-width="1859"
     inkscape:window-height="1027"
     inkscape:window-x="61"
     inkscape:window-y="229"
     inkscape:window-maximized="0"
     inkscape:current-layer="layer1">
    <inkscape:grid
       type="xygrid"
       id="grid182"
       spacingx="12"
       spacingy="12"
       originx="0"
       originy="0" />
  </sodipodi:namedview>
  <defs
     id="defs2" />
  <g
     inkscape:label="Ebene 1"
     inkscape:groupmode="layer"
     id="layer1">
    <path
       id="rect1030"
       style="fill:#000000;stroke-width:5;stroke-linecap:round;stroke-linejoin:round;paint-order:markers fill stroke"
       d="M 0 0 L 0 12 L 12 0 L 0 0 z M 24 0 L 0 24 L 0 48 L 48 0 L 24 0 z M 60 0 L 0 60 L 0 84 L 84 0 L 60 0 z M 96 0 L 0 96 L 0 108 L 12 108 L 108 12 L 108 0 L 96 0 z M 108 24 L 24 108 L 48 108 L 108 48 L 108 24 z M 108 60 L 60 108 L 84 108 L 108 84 L 108 60 z M 108 96 L 96 108 L 108 108 L 108 96 z " />
  </g>
</svg>
