<?xml version="1.0" encoding="UTF-8" standalone="no"?>
<!-- Created with Inkscape (http://www.inkscape.org/) -->

<svg
   width="120"
   height="103.924"
   viewBox="0 0 120 103.92401"
   version="1.1"
   id="svg5"
   inkscape:version="1.2 (dc2aeda, 2022-05-15)"
   sodipodi:docname="hexgrid.svg"
   xmlns:inkscape="http://www.inkscape.org/namespaces/inkscape"
   xmlns:sodipodi="http://sodipodi.sourceforge.net/DTD/sodipodi-0.dtd"
   xmlns="http://www.w3.org/2000/svg"
   xmlns:svg="http://www.w3.org/2000/svg">
  <sodipodi:namedview
     id="namedview7"
     pagecolor="#545454"
     bordercolor="#eeeeee"
     borderopacity="1"
     inkscape:showpageshadow="0"
     inkscape:pageopacity="0.50196078"
     inkscape:pagecheckerboard="true"
     inkscape:deskcolor="#505050"
     inkscape:document-units="px"
     showgrid="false"
     inkscape:zoom="3.1251122"
     inkscape:cx="44.958385"
     inkscape:cy="91.036731"
     inkscape:window-width="1859"
     inkscape:window-height="1027"
     inkscape:window-x="61"
     inkscape:window-y="229"
     inkscape:window-maximized="0"
     inkscape:current-layer="layer1"
     showguides="true">
    <inkscape:grid
       type="xygrid"
       id="grid182"
       spacingx="12"
       spacingy="12"
       originx="-6"
       originy="22.890626" />
  </sodipodi:namedview>
  <defs
     id="defs2" />
  <g
     inkscape:label="Ebene 1"
     inkscape:groupmode="layer"
     id="layer1"
     transform="translate(-6,22.890625)">
    <path
       id="path1142"
       style="fill:#000000;stroke-width:4.80384;stroke-linecap:round;stroke-linejoin:round;paint-order:markers fill stroke"
       d="M 30 -22.890625 L 30 -9.0332031 L 6 4.8242188 L 6 53.320312 L 30 67.175781 L 30 81.033203 L 42 81.033203 L 42 67.175781 L 54 60.248047 L 65.998047 53.320312 L 66 53.320312 L 89.998047 67.175781 L 89.998047 81.033203 L 101.99805 81.033203 L 101.99805 67.175781 L 113.99805 60.248047 L 125.99805 53.320312 L 125.99805 4.8242188 L 125.99609 4.8242188 L 101.99805 -9.0332031 L 101.99805 -22.890625 L 89.998047 -22.890625 L 89.998047 -9.0332031 L 66 4.8242188 L 65.998047 4.8242188 L 42 -9.0332031 L 42 -22.890625 L 30 -22.890625 z M 36 1.359375 L 48 8.2871094 L 60 15.214844 L 60 42.927734 L 36.001953 56.785156 L 12 42.927734 L 12 15.214844 L 36 1.359375 z M 95.998047 1.359375 L 107.99805 8.2871094 L 119.99805 15.214844 L 119.99805 42.927734 L 96 56.785156 L 71.998047 42.927734 L 71.998047 15.214844 L 95.998047 1.359375 z " />
  </g>
</svg>
