<?xml version="1.0" encoding="UTF-8" standalone="no"?>
<!-- Created with Inkscape (http://www.inkscape.org/) -->

<svg
   width="120"
   height="120"
   viewBox="0 0 120 120.00001"
   version="1.1"
   id="svg5"
   inkscape:version="1.2 (dc2aeda, 2022-05-15)"
   sodipodi:docname="hexgrid.svg"
   xmlns:inkscape="http://www.inkscape.org/namespaces/inkscape"
   xmlns:sodipodi="http://sodipodi.sourceforge.net/DTD/sodipodi-0.dtd"
   xmlns="http://www.w3.org/2000/svg"
   xmlns:svg="http://www.w3.org/2000/svg">
  <sodipodi:namedview
     id="namedview7"
     pagecolor="#545454"
     bordercolor="#eeeeee"
     borderopacity="1"
     inkscape:showpageshadow="0"
     inkscape:pageopacity="0.50196078"
     inkscape:pagecheckerboard="true"
     inkscape:deskcolor="#505050"
     inkscape:document-units="px"
     showgrid="false"
     inkscape:zoom="3.1251122"
     inkscape:cx="46.718323"
     inkscape:cy="75.517289"
     inkscape:window-width="1451"
     inkscape:window-height="916"
     inkscape:window-x="61"
     inkscape:window-y="38"
     inkscape:window-maximized="0"
     inkscape:current-layer="layer1"
     showguides="true">
    <inkscape:grid
       type="xygrid"
       id="grid182"
       spacingx="12"
       spacingy="12"
       originx="-6"
       originy="22.890628" />
  </sodipodi:namedview>
  <defs
     id="defs2" />
  <g
     inkscape:label="Ebene 1"
     inkscape:groupmode="layer"
     id="layer1"
     transform="translate(-6,22.890625)">
    <path
       id="path1142"
       style="fill:#000000;stroke-width:5.16204;stroke-linecap:round;stroke-linejoin:round;paint-order:markers fill stroke"
       d="M 30,-22.890625 V -6.8895725 L 6,9.11148 V 65.109525 L 30,81.108322 V 97.109375 H 42 V 81.108322 L 54,73.108924 65.998047,65.109525 H 66 L 89.998047,81.108322 V 97.109375 H 101.99805 V 81.108322 l 12,-7.999398 12,-7.999399 V 9.11148 h -0.002 l -23.998,-16.0010525 V -22.890625 H 89.998047 V -6.8895725 L 66,9.11148 H 65.998 L 42,-6.8895725 V -22.890625 Z m 6,28.001278 12,7.999399 12,7.999399 V 53.109299 L 36.001953,69.110352 12,53.109299 V 21.109451 Z m 59.998047,0 12.000003,7.999399 12,7.999399 V 53.109299 L 96,69.110352 71.998047,53.109299 V 21.109451 Z" />
  </g>
</svg>
