<?xml version="1.0" encoding="UTF-8" standalone="no"?>
<!-- Created with Inkscape (http://www.inkscape.org/) -->

<svg
   width="120"
   height="240"
   viewBox="0 0 120 240"
   version="1.1"
   id="svg5"
   inkscape:version="1.2 (dc2aeda, 2022-05-15)"
   sodipodi:docname="wave.svg"
   xmlns:inkscape="http://www.inkscape.org/namespaces/inkscape"
   xmlns:sodipodi="http://sodipodi.sourceforge.net/DTD/sodipodi-0.dtd"
   xmlns="http://www.w3.org/2000/svg"
   xmlns:svg="http://www.w3.org/2000/svg">
  <sodipodi:namedview
     id="namedview7"
     pagecolor="#545454"
     bordercolor="#eeeeee"
     borderopacity="1"
     inkscape:showpageshadow="0"
     inkscape:pageopacity="0.50196078"
     inkscape:pagecheckerboard="true"
     inkscape:deskcolor="#505050"
     inkscape:document-units="px"
     showgrid="true"
     inkscape:zoom="3.1251122"
     inkscape:cx="-13.439517"
     inkscape:cy="125.11551"
     inkscape:window-width="1451"
     inkscape:window-height="916"
     inkscape:window-x="61"
     inkscape:window-y="38"
     inkscape:window-maximized="0"
     inkscape:current-layer="layer1"
     showguides="false">
    <inkscape:grid
       type="xygrid"
       id="grid182"
       spacingx="12"
       spacingy="12"
       originx="0"
       originy="0" />
  </sodipodi:namedview>
  <defs
     id="defs2" />
  <g
     inkscape:label="Ebene 1"
     inkscape:groupmode="layer"
     id="layer1">
    <path
       id="path562"
       style="fill:#000000;stroke-width:5;stroke-linecap:round;stroke-linejoin:round;paint-order:markers fill stroke"
       d="M 0 24 L 0 84 C 23.999952 84 12.000096 120 60 120 C 107.9999 120 96.000048 84 120 84 L 120 24 C 96.000048 24 99.291779 72.3309 60 72 C 24.000072 72 23.999952 24 0 24 z M 60 144 C 36.000024 144 39.291818 192.3309 0 192 L 0 240 C 47.999952 240 36.000024 204 60 204 C 83.999976 204 72.000048 240 120 240 L 120 192 C 84.000036 192 83.999976 144 60 144 z " />
  </g>
</svg>
